<svg width="91" height="91" viewBox="0 0 91 91" fill="none" xmlns="http://www.w3.org/2000/svg">
<path d="M50.3933 17.1454V11.0214C50.3933 9.52366 51.6076 8.30938 53.1053 8.30938C54.6031 8.30938 55.8174 9.52366 55.8174 11.0214V27.3527V32.4429C55.8174 35.4315 53.3947 37.8542 50.4061 37.8542H40.7987C39.1989 37.8542 37.6812 37.1463 36.653 35.9208L26.0003 23.2227C25.1273 22.1821 25.2549 20.6328 26.2861 19.7489C27.2503 18.9224 28.6834 18.9587 29.6046 19.833L33.0912 23.1424C33.4294 23.4635 33.9879 23.2261 33.9914 22.7597L34.1206 5.61049C34.1206 4.11272 35.3349 2.89844 36.8327 2.89844C38.3305 2.89844 39.5447 4.11272 39.5447 5.61049V14.1407L50.3933 17.1454Z" fill="#CD9568"/>
<path d="M50.3933 17.1454V11.0214C50.3933 9.52366 51.6076 8.30938 53.1053 8.30938C54.6031 8.30938 55.8174 9.52366 55.8174 11.0214V27.3527V32.4429C55.8174 35.4315 53.3947 37.8542 50.4061 37.8542H40.7987C39.1989 37.8542 37.6812 37.1463 36.653 35.9208L26.0003 23.2227C25.1273 22.1821 25.2549 20.6328 26.2861 19.7489C27.2503 18.9224 28.6834 18.9587 29.6046 19.833L33.0912 23.1424C33.4294 23.4635 33.9879 23.2261 33.9914 22.7597L34.1206 5.61049C34.1206 4.11272 35.3349 2.89844 36.8327 2.89844C38.3305 2.89844 39.5447 4.11272 39.5447 5.61049V14.1407L50.3933 17.1454Z" stroke="black"/>
<path d="M39.5445 17.1451V2.71205C39.5445 1.21428 40.7588 0 42.2567 0C43.7545 0 44.9688 1.21428 44.9688 2.71205V16.7856L39.5445 17.1451Z" fill="#D99D6D"/>
<path d="M39.5445 17.1451V2.71205C39.5445 1.21428 40.7588 0 42.2567 0C43.7545 0 44.9688 1.21428 44.9688 2.71205V16.7856L39.5445 17.1451Z" stroke="black"/>
<path d="M42.0391 0.00869467C42.6158 -0.0371608 43.156 0.100761 43.6133 0.365763C42.8033 0.834804 42.2572 1.70872 42.2572 2.71203V15.6962C42.2572 16.4104 41.7033 17.0021 40.9908 17.0493C40.2082 17.1012 39.5451 16.4804 39.5451 15.6962V2.78739C39.5451 1.36036 40.6165 0.121734 42.0391 0.00869467Z" fill="#EAAC7B"/>
<path d="M42.0391 0.00869467C42.6158 -0.0371608 43.156 0.100761 43.6133 0.365763C42.8033 0.834804 42.2572 1.70872 42.2572 2.71203V15.6962C42.2572 16.4104 41.7033 17.0021 40.9908 17.0493C40.2082 17.1012 39.5451 16.4804 39.5451 15.6962V2.78739C39.5451 1.36036 40.6165 0.121734 42.0391 0.00869467Z" stroke="black"/>
<path d="M44.9695 17.1453V5.61C44.9695 4.11223 46.1837 2.89795 47.6815 2.89795C49.1793 2.89795 50.3936 4.11223 50.3936 5.61V18.5064L44.9695 17.1453Z" fill="#D99D6D"/>
<path d="M44.9695 17.1453V5.61C44.9695 4.11223 46.1837 2.89795 47.6815 2.89795C49.1793 2.89795 50.3936 4.11223 50.3936 5.61V18.5064L44.9695 17.1453Z" stroke="black"/>
<path d="M47.4639 2.90616C48.0406 2.8603 48.5808 2.99822 49.0381 3.26322C48.2282 3.73226 47.682 4.60618 47.682 5.6095V16.7899C47.682 17.504 47.1282 18.0957 46.4156 18.143C45.6331 18.1949 44.9699 17.574 44.9699 16.7899V5.68485C44.9699 4.25783 46.0413 3.01919 47.4639 2.90616Z" fill="#EAAC7B"/>
<path d="M47.4639 2.90616C48.0406 2.8603 48.5808 2.99822 49.0381 3.26322C48.2282 3.73226 47.682 4.60618 47.682 5.6095V16.7899C47.682 17.504 47.1282 18.0957 46.4156 18.143C45.6331 18.1949 44.9699 17.574 44.9699 16.7899V5.68485C44.9699 4.25783 46.0413 3.01919 47.4639 2.90616Z" stroke="black"/>
<path d="M52.8877 8.31534C53.4645 8.26948 54.0046 8.4074 54.4619 8.6724C53.652 9.14144 53.1058 10.0154 53.1058 11.0187V16.7878C53.1058 17.5019 52.552 18.0936 51.8394 18.1408C51.0569 18.1927 50.3938 17.5719 50.3938 16.7878V11.0942C50.3939 9.66718 51.4651 8.42855 52.8877 8.31534Z" fill="#EAAC7B"/>
<path d="M52.8877 8.31534C53.4645 8.26948 54.0046 8.4074 54.4619 8.6724C53.652 9.14144 53.1058 10.0154 53.1058 11.0187V16.7878C53.1058 17.5019 52.552 18.0936 51.8394 18.1408C51.0569 18.1927 50.3938 17.5719 50.3938 16.7878V11.0942C50.3939 9.66718 51.4651 8.42855 52.8877 8.31534Z" stroke="black"/>
<path d="M55.3174 89.1963V41.4615C55.3174 39.7452 53.9262 38.354 52.2099 38.354H38.7149C36.9986 38.354 35.6074 39.7452 35.6074 41.4615V89.1963C35.6074 89.9164 36.1912 90.5001 36.9112 90.5001H54.0137C54.7336 90.5001 55.3174 89.9164 55.3174 89.1963Z" fill="#E5403C" fill-opacity="0.63" stroke="black"/>
<path d="M55.8174 44.4639H35.1074V47.1695H55.8174V44.4639Z" fill="#FD4755"/>
<path d="M55.8174 44.4639H35.1074V47.1695H55.8174V44.4639Z" stroke="black"/>
<path d="M28.625 89.1959V68.1712C28.625 66.5536 27.3136 65.2422 25.696 65.2422H12.8691C11.2514 65.2422 9.94003 66.5536 9.94003 68.1712V89.1959C9.94003 89.916 10.5238 90.4998 11.2439 90.4998H27.3212C28.0412 90.4998 28.625 89.916 28.625 89.1959Z" fill="#52A2CF" stroke="black"/>
<path d="M29.125 70.958H9.4402V73.6637H29.125V70.958Z" fill="#3B88C3"/>
<path d="M67.0322 45.0592V39.2384C67.0322 37.8147 65.878 36.6605 64.4544 36.6605C63.0307 36.6605 61.8765 37.8147 61.8765 39.2384V54.7612V59.5993C61.8765 62.4398 64.1792 64.7427 67.02 64.7427H76.152C77.6725 64.7427 79.1151 64.07 80.0923 62.905L90.2177 50.8354C91.0473 49.8463 90.9263 48.3736 89.9461 47.5334C89.0295 46.7479 87.6675 46.7823 86.792 47.6134L83.5354 50.7046C83.192 51.0305 82.6254 50.7895 82.6218 50.3162L82.4996 34.0949C82.4996 32.6713 81.3454 31.5171 79.9217 31.5171C78.498 31.5171 77.3438 32.6713 77.3438 34.0949V42.2028L67.0322 45.0592Z" fill="#845818"/>
<path d="M67.0322 45.0592V39.2384C67.0322 37.8147 65.878 36.6605 64.4544 36.6605C63.0307 36.6605 61.8765 37.8147 61.8765 39.2384V54.7612V59.5993C61.8765 62.4398 64.1792 64.7427 67.02 64.7427H76.152C77.6725 64.7427 79.1151 64.07 80.0923 62.905L90.2177 50.8354C91.0473 49.8463 90.9263 48.3736 89.9461 47.5334C89.0295 46.7479 87.6675 46.7823 86.792 47.6134L83.5354 50.7046C83.192 51.0305 82.6254 50.7895 82.6218 50.3162L82.4996 34.0949C82.4996 32.6713 81.3454 31.5171 79.9217 31.5171C78.498 31.5171 77.3438 32.6713 77.3438 34.0949V42.2028L67.0322 45.0592Z" stroke="black"/>
<path d="M77.3438 45.0592V31.3406C77.3438 29.9169 76.1895 28.7627 74.7659 28.7627C73.3422 28.7627 72.188 29.9169 72.188 31.3406V44.9852L77.3438 45.0592Z" fill="#845818"/>
<path d="M77.3438 45.0592V31.3406C77.3438 29.9169 76.1895 28.7627 74.7659 28.7627C73.3422 28.7627 72.188 29.9169 72.188 31.3406V44.9852L77.3438 45.0592Z" stroke="black"/>
<path d="M72.1875 45.0592V34.095C72.1875 32.6713 71.0333 31.5171 69.6096 31.5171C68.186 31.5171 67.0318 32.6713 67.0318 34.095V46.5316L72.1875 45.0592Z" fill="#845818"/>
<path d="M72.1875 45.0592V34.095C72.1875 32.6713 71.0333 31.5171 69.6096 31.5171C68.186 31.5171 67.0318 32.6713 67.0318 34.095V46.5316L72.1875 45.0592Z" stroke="black"/>
<path d="M69.6097 31.5171C70.027 31.5171 70.4198 31.6184 70.7686 31.7945C69.9275 32.2191 69.3495 33.0884 69.3495 34.0949V44.9956C69.3495 45.513 69.0065 45.9678 68.509 46.1098C67.7688 46.3211 67.032 45.7653 67.032 44.9956V34.0949C67.0319 32.6713 68.1861 31.5171 69.6097 31.5171Z" fill="#9C7841"/>
<path d="M69.6097 31.5171C70.027 31.5171 70.4198 31.6184 70.7686 31.7945C69.9275 32.2191 69.3495 33.0884 69.3495 34.0949V44.9956C69.3495 45.513 69.0065 45.9678 68.509 46.1098C67.7688 46.3211 67.032 45.7653 67.032 44.9956V34.0949C67.0319 32.6713 68.1861 31.5171 69.6097 31.5171Z" stroke="black"/>
<path d="M74.766 28.7627C75.1833 28.7627 75.5761 28.864 75.9248 29.0401C75.0838 29.4647 74.5058 30.334 74.5058 31.3406V44.0448C74.5058 44.5622 74.1627 45.017 73.6653 45.159C72.925 45.3704 72.1883 44.8146 72.1883 44.0448V31.3406C72.1881 29.9169 73.3423 28.7627 74.766 28.7627Z" fill="#9C7841"/>
<path d="M74.766 28.7627C75.1833 28.7627 75.5761 28.864 75.9248 29.0401C75.0838 29.4647 74.5058 30.334 74.5058 31.3406V44.0448C74.5058 44.5622 74.1627 45.017 73.6653 45.159C72.925 45.3704 72.1883 44.8146 72.1883 44.0448V31.3406C72.1881 29.9169 73.3423 28.7627 74.766 28.7627Z" stroke="black"/>
<path d="M79.9222 31.5171C80.3395 31.5171 80.7323 31.6184 81.0811 31.7945C80.24 32.2191 79.662 33.0884 79.662 34.0949V44.9956C79.662 45.513 79.319 45.9678 78.8215 46.1098C78.0813 46.3211 77.3445 45.7653 77.3445 44.9956V34.0949C77.3444 32.6713 78.4984 31.5171 79.9222 31.5171Z" fill="#9C7841"/>
<path d="M79.9222 31.5171C80.3395 31.5171 80.7323 31.6184 81.0811 31.7945C80.24 32.2191 79.662 33.0884 79.662 34.0949V44.9956C79.662 45.513 79.319 45.9678 78.8215 46.1098C78.0813 46.3211 77.3445 45.7653 77.3445 44.9956V34.0949C77.3444 32.6713 78.4984 31.5171 79.9222 31.5171Z" stroke="black"/>
<path d="M62.3766 68.1717V89.1964C62.3766 89.9165 62.9603 90.5003 63.6804 90.5003H79.7577C80.4778 90.5003 81.0615 89.9165 81.0615 89.1964V68.1717C81.0615 66.5541 79.7501 65.2427 78.1325 65.2427H65.3056C63.688 65.2427 62.3766 66.5541 62.3766 68.1717Z" fill="#F2BC72" stroke="black"/>
<path d="M81.5605 70.958H61.8758V73.6637H81.5605V70.958Z" fill="#F4900C"/>
<path d="M81.5605 70.958H61.8758V73.6637H81.5605V70.958Z" stroke="black"/>
<path d="M23.9693 45.059V39.2382C23.9693 37.8146 25.1235 36.6604 26.5471 36.6604C27.9708 36.6604 29.125 37.8146 29.125 39.2382V54.761V59.5991C29.125 62.4397 26.8223 64.7426 23.9815 64.7426H14.8497C13.3292 64.7426 11.8865 64.0698 10.9093 62.9048L0.783995 50.8354C-0.0456696 49.8463 0.0753708 48.3736 1.05558 47.5334C1.97215 46.7479 3.33413 46.7823 4.20965 47.6134L7.46628 50.7046C7.80966 51.0305 8.37628 50.7895 8.38001 50.3162L8.50229 34.0949C8.50229 32.6713 9.6565 31.5171 11.0802 31.5171C12.5038 31.5171 13.658 32.6713 13.658 34.0949V42.2028L23.9693 45.059Z" fill="#FFCEBF"/>
<path d="M23.9693 45.059V39.2382C23.9693 37.8146 25.1235 36.6604 26.5471 36.6604C27.9708 36.6604 29.125 37.8146 29.125 39.2382V54.761V59.5991C29.125 62.4397 26.8223 64.7426 23.9815 64.7426H14.8497C13.3292 64.7426 11.8865 64.0698 10.9093 62.9048L0.783995 50.8354C-0.0456696 49.8463 0.0753708 48.3736 1.05558 47.5334C1.97215 46.7479 3.33413 46.7823 4.20965 47.6134L7.46628 50.7046C7.80966 51.0305 8.37628 50.7895 8.38001 50.3162L8.50229 34.0949C8.50229 32.6713 9.6565 31.5171 11.0802 31.5171C12.5038 31.5171 13.658 32.6713 13.658 34.0949V42.2028L23.9693 45.059Z" stroke="black"/>
<path d="M13.6578 45.0592V31.3406C13.6578 29.9169 14.812 28.7627 16.2356 28.7627C17.6593 28.7627 18.8135 29.9169 18.8135 31.3406V44.9852L13.6578 45.0592Z" fill="#FFCEBF"/>
<path d="M13.6578 45.0592V31.3406C13.6578 29.9169 14.812 28.7627 16.2356 28.7627C17.6593 28.7627 18.8135 29.9169 18.8135 31.3406V44.9852L13.6578 45.0592Z" stroke="black"/>
<path d="M18.813 45.0592V34.095C18.813 32.6713 19.9672 31.5171 21.3909 31.5171C22.8145 31.5171 23.9688 32.6713 23.9688 34.095V46.5316L18.813 45.0592Z" fill="#FFCEBF"/>
<path d="M18.813 45.0592V34.095C18.813 32.6713 19.9672 31.5171 21.3909 31.5171C22.8145 31.5171 23.9688 32.6713 23.9688 34.095V46.5316L18.813 45.0592Z" stroke="black"/>
<path d="M21.392 31.5171C21.8093 31.5171 22.2021 31.6184 22.5508 31.7945C21.7097 32.2191 21.1318 33.0884 21.1318 34.0949V44.9956C21.1318 45.513 20.7887 45.9678 20.2913 46.1098C19.551 46.3211 18.8143 45.7653 18.8143 44.9956V34.0949C18.8141 32.6713 19.9683 31.5171 21.392 31.5171Z" fill="#FFB09E"/>
<path d="M21.392 31.5171C21.8093 31.5171 22.2021 31.6184 22.5508 31.7945C21.7097 32.2191 21.1318 33.0884 21.1318 34.0949V44.9956C21.1318 45.513 20.7887 45.9678 20.2913 46.1098C19.551 46.3211 18.8143 45.7653 18.8143 44.9956V34.0949C18.8141 32.6713 19.9683 31.5171 21.392 31.5171Z" stroke="black"/>
<path d="M16.2357 28.7627C16.653 28.7627 17.0458 28.864 17.3945 29.0401C16.5535 29.4647 15.9755 30.334 15.9755 31.3406V44.0448C15.9755 44.5622 15.6325 45.017 15.135 45.159C14.3947 45.3704 13.658 44.8146 13.658 44.0448V31.3406C13.6578 29.9169 14.8121 28.7627 16.2357 28.7627Z" fill="#FFB09E"/>
<path d="M16.2357 28.7627C16.653 28.7627 17.0458 28.864 17.3945 29.0401C16.5535 29.4647 15.9755 30.334 15.9755 31.3406V44.0448C15.9755 44.5622 15.6325 45.017 15.135 45.159C14.3947 45.3704 13.658 44.8146 13.658 44.0448V31.3406C13.6578 29.9169 14.8121 28.7627 16.2357 28.7627Z" stroke="black"/>
<path d="M11.0765 31.5171C11.4938 31.5171 11.8866 31.6184 12.2354 31.7945C11.3943 32.2191 10.8163 33.0884 10.8163 34.0949V44.9956C10.8163 45.513 10.4733 45.9678 9.9758 46.1098C9.23554 46.3211 8.49882 45.7653 8.49882 44.9956V34.0949C8.49865 32.6713 9.65268 31.5171 11.0765 31.5171Z" fill="#FFB09E"/>
<path d="M11.0765 31.5171C11.4938 31.5171 11.8866 31.6184 12.2354 31.7945C11.3943 32.2191 10.8163 33.0884 10.8163 34.0949V44.9956C10.8163 45.513 10.4733 45.9678 9.9758 46.1098C9.23554 46.3211 8.49882 45.7653 8.49882 44.9956V34.0949C8.49865 32.6713 9.65268 31.5171 11.0765 31.5171Z" stroke="black"/>
</svg>
