<svg width="18" height="28" viewBox="0 0 18 28" fill="none" xmlns="http://www.w3.org/2000/svg">
<path d="M0.0122961 2.11202L4.0123 2.11202L8.51208 7.10937L8.5121 11.11L0.0122961 2.11202Z" fill="#b0b0b0"/>
<path d="M13.0123 2.11109L17.0123 2.11117L8.51233 11.1094L8.51233 7.10938L13.0123 2.11109Z" fill="#b0b0b0"/>
<path d="M0.0122961 10.112L4.0123 10.112L8.51208 15.1094L8.5121 19.11L0.0122961 10.112Z" fill="black"/>
<path d="M13.0123 10.1111L17.0123 10.1112L8.51233 19.1094L8.51233 15.1094L13.0123 10.1111Z" fill="black"/>
<path d="M0.0122961 18.112L4.0123 18.112L8.51208 23.1094L8.5121 27.11L0.0122961 18.112Z" fill="black"/>
<path d="M13.0123 18.1111L17.0123 18.1112L8.51233 27.1094L8.51233 23.1094L13.0123 18.1111Z" fill="black"/>
</svg>
