<svg width="203" height="154" viewBox="0 0 203 154" fill="none" xmlns="http://www.w3.org/2000/svg">
<path d="M120.945 81.64C140.915 81.64 157.104 74.7677 157.104 66.2902C157.104 57.8128 140.915 50.9404 120.945 50.9404C100.974 50.9404 84.7852 57.8128 84.7852 66.2902C84.7852 74.7677 100.974 81.64 120.945 81.64Z" fill="#CE7D13"/>
<path d="M84.7852 57.3486V64.7361C84.7852 71.0378 93.7187 76.4454 106.523 78.8085C109.565 79.3621 112.798 79.7666 116.201 79.9582C117.775 80.0433 119.349 80.0859 120.966 80.0859C126.092 80.0859 130.984 79.6388 135.387 78.8085C148.171 76.4454 154.828 70.9101 154.828 64.6083L157.104 56.5822C151.893 50.834 136.344 49.4076 120.945 49.4076C108.714 49.365 91.3364 53.41 84.7852 57.3486Z" fill="#FFC50D"/>
<g opacity="0.43">
<path opacity="0.43" d="M106.521 65.2676V78.8078C109.562 79.3613 112.795 79.7658 116.199 79.9574V65.2889H106.521V65.2676Z" fill="#FFFC8F"/>
</g>
<path d="M133.855 79.0432V49.77C144.342 50.5152 153.382 52.4312 157.104 56.5401V64.694C157.104 71.2512 147.447 76.8291 133.855 79.0432Z" fill="#F19D00"/>
<path d="M120.954 72.6991C140.925 72.6991 157.114 65.8268 157.114 57.3493C157.114 48.8719 140.925 41.9995 120.954 41.9995C100.984 41.9995 84.7949 48.8719 84.7949 57.3493C84.7949 65.8268 100.984 72.6991 120.954 72.6991Z" fill="#FFD400"/>
<path d="M100.324 69.3794C94.1553 67.4846 89.5396 64.8021 87.2637 61.7577L116.404 42.5758C118.084 42.4693 119.743 42.4268 121.381 42.4268C127.358 42.4268 133.25 43.0654 138.483 44.2577L100.324 69.3794Z" fill="#FFFC8F"/>
<path d="M116.267 72.1034C113.374 71.9331 110.545 71.6137 107.822 71.1454L145.449 46.3643C147.598 47.1946 149.512 48.1313 151.129 49.1532L116.267 72.1034Z" fill="#FFFC8F"/>
<path d="M120.945 72.2816C140.915 72.2816 157.104 65.4093 157.104 56.9318C157.104 48.4544 140.915 41.582 120.945 41.582C100.974 41.582 84.7852 48.4544 84.7852 56.9318C84.7852 65.4093 100.974 72.2816 120.945 72.2816Z" fill="#CE7D13"/>
<path d="M84.7852 47.9882V55.3757C84.7852 61.6775 93.7187 67.085 106.523 69.4482C109.565 70.0017 112.798 70.4062 116.201 70.5978C117.775 70.683 119.349 70.7255 120.966 70.7255C126.092 70.7255 130.984 70.2785 135.387 69.4482C148.171 67.085 154.828 61.5497 154.828 55.248L157.104 47.2218C151.893 41.4736 136.344 40.0472 120.945 40.0472C108.714 40.0046 91.3364 44.0497 84.7852 47.9882Z" fill="#FFC50D"/>
<g opacity="0.43">
<path opacity="0.43" d="M106.521 55.9062V69.4464C109.562 70 112.795 70.4045 116.199 70.5961V55.9275H106.521V55.9062Z" fill="#FFFC8F"/>
</g>
<path d="M133.855 69.6838V40.4106C144.342 41.1558 153.382 43.0718 157.104 47.1807V55.3347C157.104 61.8919 147.447 67.4697 133.855 69.6838Z" fill="#F19D00"/>
<path d="M120.954 63.3397C140.925 63.3397 157.114 56.4674 157.114 47.9899C157.114 39.5125 140.925 32.6401 120.954 32.6401C100.984 32.6401 84.7949 39.5125 84.7949 47.9899C84.7949 56.4674 100.984 63.3397 120.954 63.3397Z" fill="#FFD400"/>
<path d="M100.324 60.0166C94.1553 58.1218 89.5396 55.4393 87.2637 52.3949L116.404 33.213C118.084 33.1065 119.743 33.064 121.381 33.064C127.358 33.064 133.25 33.7027 138.483 34.8949L100.324 60.0166Z" fill="#FFFC8F"/>
<path d="M116.267 62.745C113.374 62.5747 110.545 62.2553 107.822 61.787L145.449 37.0059C147.598 37.8362 149.512 38.7729 151.129 39.7948L116.267 62.745Z" fill="#FFFC8F"/>
<path d="M128.756 60.5829C148.727 60.5829 164.916 53.7106 164.916 45.2331C164.916 36.7556 148.727 29.8833 128.756 29.8833C108.786 29.8833 92.5967 36.7556 92.5967 45.2331C92.5967 53.7106 108.786 60.5829 128.756 60.5829Z" fill="#CE7D13"/>
<path d="M92.5967 36.2885V43.676C92.5967 49.9778 101.53 55.3853 114.335 57.7485C117.377 58.302 120.61 58.7065 124.013 58.8981C125.587 58.9833 127.161 59.0258 128.778 59.0258C133.904 59.0258 138.796 58.5788 143.199 57.7485C155.982 55.3853 162.64 49.85 162.64 43.5483L164.916 35.5221C159.705 29.7739 144.156 28.3475 128.756 28.3475C116.526 28.3049 99.1479 32.3499 92.5967 36.2885Z" fill="#FFC50D"/>
<g opacity="0.43">
<path opacity="0.43" d="M114.339 44.2085V57.7487C117.381 58.3022 120.614 58.7067 124.017 58.8983V44.2298H114.339V44.2085Z" fill="#FFFC8F"/>
</g>
<path d="M141.667 57.9851V28.7119C152.153 29.4571 161.193 31.3731 164.915 35.482V43.6359C164.915 50.1931 155.259 55.771 141.667 57.9851Z" fill="#F19D00"/>
<path d="M128.756 51.6371C148.727 51.6371 164.916 44.7648 164.916 36.2873C164.916 27.8098 148.727 20.9375 128.756 20.9375C108.786 20.9375 92.5967 27.8098 92.5967 36.2873C92.5967 44.7648 108.786 51.6371 128.756 51.6371Z" fill="#FFD400"/>
<path d="M108.149 48.3174C101.98 46.4226 97.3648 43.7401 95.0889 40.6957L124.229 21.5138C125.91 21.4073 127.569 21.3647 129.206 21.3647C135.183 21.3647 141.075 22.0034 146.308 23.1957L108.149 48.3174Z" fill="#FFFC8F"/>
<path d="M124.08 51.0453C121.187 50.875 118.358 50.5556 115.636 50.0873L153.263 25.3062C155.411 26.1364 157.326 27.0732 158.942 28.0951L124.08 51.0453Z" fill="#FFFC8F"/>
<path d="M113.16 50.4437C133.13 50.4437 149.319 43.5714 149.319 35.0939C149.319 26.6165 133.13 19.7441 113.16 19.7441C93.1892 19.7441 77 26.6165 77 35.0939C77 43.5714 93.1892 50.4437 113.16 50.4437Z" fill="#CE7D13"/>
<path d="M77 26.1494V33.5369C77 39.8386 85.9335 45.2462 98.7383 47.6093C101.78 48.1628 105.013 48.5673 108.416 48.7589C109.99 48.8441 111.564 48.8867 113.181 48.8867C118.307 48.8867 123.199 48.4396 127.602 47.6093C140.386 45.2462 147.043 39.7109 147.043 33.4091L149.319 25.3829C144.108 19.6347 128.559 18.2083 113.16 18.2083C100.929 18.1658 83.5513 22.2108 77 26.1494Z" fill="#FFC50D"/>
<g opacity="0.43">
<path opacity="0.43" d="M98.7354 34.0688V47.609C101.777 48.1626 105.01 48.5671 108.413 48.7587V34.0901H98.7354V34.0688Z" fill="#FFFC8F"/>
</g>
<path d="M126.07 47.846V18.5728C136.557 19.3179 145.596 21.234 149.319 25.3428V33.4968C149.319 40.054 139.662 45.6318 126.07 47.846Z" fill="#F19D00"/>
<path d="M113.16 41.4979C133.13 41.4979 149.319 34.6256 149.319 26.1481C149.319 17.6707 133.13 10.7983 113.16 10.7983C93.1892 10.7983 77 17.6707 77 26.1481C77 34.6256 93.1892 41.4979 113.16 41.4979Z" fill="#FFD400"/>
<path d="M92.5385 38.1782C86.3701 36.2835 81.7544 33.601 79.4785 30.5566L108.619 11.3746C110.299 11.2682 111.958 11.2256 113.596 11.2256C119.573 11.2256 125.465 11.8643 130.697 13.0565L92.5385 38.1782Z" fill="#FFFC8F"/>
<path d="M108.481 40.9071C105.589 40.7368 102.76 40.4174 100.037 39.9491L137.664 15.168C139.813 15.9983 141.727 16.935 143.343 17.9569L108.481 40.9071Z" fill="#FFFC8F"/>
<path d="M136.552 42.6454C156.523 42.6454 172.712 35.7731 172.712 27.2956C172.712 18.8181 156.523 11.9458 136.552 11.9458C116.582 11.9458 100.393 18.8181 100.393 27.2956C100.393 35.7731 116.582 42.6454 136.552 42.6454Z" fill="#CE7D13"/>
<path d="M100.393 18.3501V25.7376C100.393 32.0393 109.326 37.4468 122.131 39.81C125.173 40.3635 128.406 40.768 131.809 40.9596C133.383 41.0448 134.957 41.0874 136.573 41.0874C141.7 41.0874 146.592 40.6403 150.995 39.81C163.778 37.4468 170.436 31.9115 170.436 25.6098L172.712 17.5836C167.5 11.8354 151.952 10.409 136.552 10.409C124.322 10.3664 106.944 14.4115 100.393 18.3501Z" fill="#FFC50D"/>
<g opacity="0.43">
<path opacity="0.43" d="M122.128 26.2681V39.8083C125.17 40.3618 128.403 40.7663 131.806 40.9579V26.2894H122.128V26.2681Z" fill="#FFFC8F"/>
</g>
<path d="M149.463 40.0476V10.7744C159.949 11.5196 168.989 13.4356 172.711 17.5445V25.6984C172.711 32.2556 163.055 37.8335 149.463 40.0476Z" fill="#F19D00"/>
<path d="M136.56 33.6996C156.53 33.6996 172.72 26.8273 172.72 18.3498C172.72 9.87234 156.53 3 136.56 3C116.59 3 100.4 9.87234 100.4 18.3498C100.4 26.8273 116.59 33.6996 136.56 33.6996Z" fill="#FFD400"/>
<path d="M115.931 30.3799C109.763 28.4851 105.147 25.8026 102.871 22.7582L132.011 3.57627C133.692 3.46982 135.351 3.42725 136.989 3.42725C142.966 3.42725 148.858 4.06594 154.09 5.25815L115.931 30.3799Z" fill="#FFFC8F"/>
<path d="M131.874 33.1073C128.981 32.937 126.152 32.6176 123.43 32.1493L161.057 7.36816C163.205 8.19846 165.12 9.1352 166.736 10.1571L131.874 33.1073Z" fill="#FFFC8F"/>
<path d="M46.3597 145.004C71.9634 145.004 92.7194 136.193 92.7194 125.324C92.7194 114.455 71.9634 105.645 46.3597 105.645C20.7559 105.645 0 114.455 0 125.324C0 136.193 20.7559 145.004 46.3597 145.004Z" fill="#CE7D13"/>
<path d="M0 113.86V123.332C0 131.411 11.4536 138.344 27.8703 141.374C31.77 142.083 35.9151 142.602 40.2784 142.848C42.2964 142.957 44.3144 143.011 46.387 143.011C52.9591 143.011 59.2313 142.438 64.8763 141.374C81.2658 138.344 89.8014 131.247 89.8014 123.168L92.7194 112.878C86.0381 105.508 66.1035 103.679 46.3597 103.679C30.6792 103.625 8.39928 108.811 0 113.86Z" fill="#FFC50D"/>
<g opacity="0.43">
<path opacity="0.43" d="M27.8701 124.014V141.374C31.7698 142.084 35.9149 142.602 40.2782 142.848V124.041H27.8701V124.014Z" fill="#FFFC8F"/>
</g>
<path d="M62.9131 141.674V104.143C76.3574 105.098 87.9473 107.555 92.7196 112.823V123.277C92.7196 131.684 80.3389 138.835 62.9131 141.674Z" fill="#F19D00"/>
<path d="M46.3597 133.54C71.9634 133.54 92.7194 124.729 92.7194 113.86C92.7194 102.992 71.9634 94.1807 46.3597 94.1807C20.7559 94.1807 0 102.992 0 113.86C0 124.729 20.7559 133.54 46.3597 133.54Z" fill="#FFD400"/>
<path d="M19.9345 129.282C12.026 126.853 6.10836 123.414 3.19043 119.511L40.5509 94.9176C42.7052 94.7812 44.8323 94.7266 46.9322 94.7266C54.5951 94.7266 62.149 95.5454 68.8576 97.0739L19.9345 129.282Z" fill="#FFFC8F"/>
<path d="M40.3605 132.776C36.6518 132.557 33.0248 132.148 29.5342 131.547L77.7755 99.7759C80.5298 100.84 82.9842 102.041 85.0567 103.352L40.3605 132.776Z" fill="#FFFC8F"/>
<path d="M46.3597 131.357C71.9634 131.357 92.7194 122.546 92.7194 111.677C92.7194 100.808 71.9634 91.9971 46.3597 91.9971C20.7559 91.9971 0 100.808 0 111.677C0 122.546 20.7559 131.357 46.3597 131.357Z" fill="#CE7D13"/>
<path d="M0 100.213V109.684C0 117.764 11.4536 124.696 27.8703 127.726C31.77 128.436 35.9151 128.955 40.2784 129.2C42.2964 129.309 44.3144 129.364 46.387 129.364C52.9591 129.364 59.2313 128.791 64.8763 127.726C81.2658 124.696 89.8014 117.6 89.8014 109.52L92.7194 99.2301C86.0381 91.8604 66.1035 90.0317 46.3597 90.0317C30.6792 89.9771 8.39928 95.1632 0 100.213Z" fill="#FFC50D"/>
<g opacity="0.43">
<path opacity="0.43" d="M27.8701 110.367V127.726C31.7698 128.436 35.9149 128.955 40.2782 129.2V110.394H27.8701V110.367Z" fill="#FFFC8F"/>
</g>
<path d="M62.9131 128.027V90.4961C76.3574 91.4514 87.9473 93.908 92.7196 99.176V109.63C92.7196 118.037 80.3389 125.188 62.9131 128.027Z" fill="#F19D00"/>
<path d="M46.3597 119.893C71.9634 119.893 92.7194 111.082 92.7194 100.213C92.7194 89.3441 71.9634 80.5332 46.3597 80.5332C20.7559 80.5332 0 89.3441 0 100.213C0 111.082 20.7559 119.893 46.3597 119.893Z" fill="#FFD400"/>
<path d="M19.9345 115.635C12.026 113.205 6.10836 109.766 3.19043 105.863L40.5509 81.2702C42.7052 81.1337 44.8323 81.0791 46.9322 81.0791C54.5951 81.0791 62.149 81.8979 68.8576 83.4265L19.9345 115.635Z" fill="#FFFC8F"/>
<path d="M40.3605 119.129C36.6518 118.91 33.0248 118.501 29.5342 117.9L77.7755 86.1289C80.5298 87.1934 82.9842 88.3944 85.0567 89.7046L40.3605 119.129Z" fill="#FFFC8F"/>
<path d="M46.3597 117.709C71.9634 117.709 92.7194 108.898 92.7194 98.0294C92.7194 87.1605 71.9634 78.3496 46.3597 78.3496C20.7559 78.3496 0 87.1605 0 98.0294C0 108.898 20.7559 117.709 46.3597 117.709Z" fill="#CE7D13"/>
<path d="M0 86.5653V96.0367C0 104.116 11.4536 111.049 27.8703 114.079C31.77 114.788 35.9151 115.307 40.2784 115.553C42.2964 115.662 44.3144 115.716 46.387 115.716C52.9591 115.716 59.2313 115.143 64.8763 114.079C81.2658 111.049 89.8014 103.952 89.8014 95.8729L92.7194 85.5827C86.0381 78.213 66.1035 76.3842 46.3597 76.3842C30.6792 76.3296 8.39928 81.5157 0 86.5653Z" fill="#FFC50D"/>
<g opacity="0.43">
<path opacity="0.43" d="M27.8701 96.7192V114.079C31.7698 114.789 35.9149 115.307 40.2782 115.553V96.7465H27.8701V96.7192Z" fill="#FFFC8F"/>
</g>
<path d="M62.9131 114.379V76.8486C76.3574 77.804 87.9473 80.2605 92.7196 85.5285V95.9825C92.7196 104.389 80.3389 111.541 62.9131 114.379Z" fill="#F19D00"/>
<path d="M46.3597 106.245C71.9634 106.245 92.7194 97.4344 92.7194 86.5655C92.7194 75.6967 71.9634 66.8857 46.3597 66.8857C20.7559 66.8857 0 75.6967 0 86.5655C0 97.4344 20.7559 106.245 46.3597 106.245Z" fill="#FFD400"/>
<path d="M19.9345 101.988C12.026 99.5585 6.10836 96.1193 3.19043 92.2161L40.5509 67.6232C42.7052 67.4867 44.8323 67.4321 46.9322 67.4321C54.5951 67.4321 62.149 68.251 68.8576 69.7795L19.9345 101.988Z" fill="#FFFC8F"/>
<path d="M40.3605 105.481C36.6518 105.263 33.0248 104.853 29.5342 104.253L77.7755 72.4814C80.5298 73.546 82.9842 74.7469 85.0567 76.0571L40.3605 105.481Z" fill="#FFFC8F"/>
<path d="M46.3597 104.062C71.9634 104.062 92.7194 95.2508 92.7194 84.3819C92.7194 73.5131 71.9634 64.7021 46.3597 64.7021C20.7559 64.7021 0 73.5131 0 84.3819C0 95.2508 20.7559 104.062 46.3597 104.062Z" fill="#CE7D13"/>
<path d="M0 72.9178V82.3892C0 90.4686 11.4536 97.4016 27.8703 100.431C31.77 101.141 35.9151 101.66 40.2784 101.905C42.2964 102.014 44.3144 102.069 46.387 102.069C52.9591 102.069 59.2313 101.496 64.8763 100.431C81.2658 97.4016 89.8014 90.3048 89.8014 82.2255L92.7194 71.9352C86.0381 64.5655 66.1035 62.7368 46.3597 62.7368C30.6792 62.6822 8.39928 67.8682 0 72.9178Z" fill="#FFC50D"/>
<g opacity="0.43">
<path opacity="0.43" d="M27.8701 83.0718V100.431C31.7698 101.141 35.9149 101.66 40.2782 101.905V83.0991H27.8701V83.0718Z" fill="#FFFC8F"/>
</g>
<path d="M62.9131 100.732V63.2012C76.3574 64.1565 87.9473 66.6131 92.7196 71.881V82.3351C92.7196 90.7419 80.3389 97.8933 62.9131 100.732Z" fill="#F19D00"/>
<path d="M46.3597 92.5979C71.9634 92.5979 92.7194 83.7869 92.7194 72.9181C92.7194 62.0492 71.9634 53.2383 46.3597 53.2383C20.7559 53.2383 0 62.0492 0 72.9181C0 83.7869 20.7559 92.5979 46.3597 92.5979Z" fill="#FFD400"/>
<path d="M19.9345 88.3403C12.026 85.911 6.10836 82.4718 3.19043 78.5686L40.5509 53.9757C42.7052 53.8393 44.8323 53.7847 46.9322 53.7847C54.5951 53.7847 62.149 54.6035 68.8576 56.132L19.9345 88.3403Z" fill="#FFFC8F"/>
<path d="M40.3605 91.8338C36.6518 91.6154 33.0248 91.206 29.5342 90.6055L77.7755 58.834C80.5298 59.8985 82.9842 61.0995 85.0567 62.4096L40.3605 91.8338Z" fill="#FFFC8F"/>
<path d="M46.3597 90.4138C71.9634 90.4138 92.7194 81.6028 92.7194 70.734C92.7194 59.8651 71.9634 51.0542 46.3597 51.0542C20.7559 51.0542 0 59.8651 0 70.734C0 81.6028 20.7559 90.4138 46.3597 90.4138Z" fill="#CE7D13"/>
<path d="M0 59.2699V68.7413C0 76.8207 11.4536 83.7536 27.8703 86.7834C31.77 87.4931 35.9151 88.0117 40.2784 88.2573C42.2964 88.3665 44.3144 88.4211 46.387 88.4211C52.9591 88.4211 59.2313 87.8479 64.8763 86.7834C81.2658 83.7536 89.8014 76.6569 89.8014 68.5775L92.7194 58.2873C86.0381 50.9176 66.1035 49.0888 46.3597 49.0888C30.6792 49.0342 8.39928 54.2203 0 59.2699Z" fill="#FFC50D"/>
<g opacity="0.43">
<path opacity="0.43" d="M27.8701 69.4238V86.7835C31.7698 87.4932 35.9149 88.0118 40.2782 88.2575V69.4511H27.8701V69.4238Z" fill="#FFFC8F"/>
</g>
<path d="M62.9131 87.0835V49.5527C76.3574 50.5081 87.9473 52.9646 92.7196 58.2326V68.6866C92.7196 77.0935 80.3389 84.2448 62.9131 87.0835Z" fill="#F19D00"/>
<path d="M46.3597 78.9499C71.9634 78.9499 92.7194 70.139 92.7194 59.2701C92.7194 48.4013 71.9634 39.5903 46.3597 39.5903C20.7559 39.5903 0 48.4013 0 59.2701C0 70.139 20.7559 78.9499 46.3597 78.9499Z" fill="#FFD400"/>
<path d="M19.9345 74.6918C12.026 72.2626 6.10836 68.8234 3.19043 64.9202L40.5509 40.3273C42.7052 40.1908 44.8323 40.1362 46.9322 40.1362C54.5951 40.1362 62.149 40.9551 68.8576 42.4836L19.9345 74.6918Z" fill="#FFFC8F"/>
<path d="M40.3605 78.1853C36.6518 77.967 33.0248 77.5576 29.5342 76.9571L77.7755 45.1855C80.5298 46.2501 82.9842 47.451 85.0567 48.7612L40.3605 78.1853Z" fill="#FFFC8F"/>
<path d="M46.3597 76.7663C71.9634 76.7663 92.7194 67.9554 92.7194 57.0865C92.7194 46.2177 71.9634 37.4067 46.3597 37.4067C20.7559 37.4067 0 46.2177 0 57.0865C0 67.9554 20.7559 76.7663 46.3597 76.7663Z" fill="#CE7D13"/>
<path d="M0 45.6224V55.0938C0 63.1732 11.4536 70.1062 27.8703 73.1359C31.77 73.8456 35.9151 74.3642 40.2784 74.6099C42.2964 74.719 44.3144 74.7736 46.387 74.7736C52.9591 74.7736 59.2313 74.2004 64.8763 73.1359C81.2658 70.1062 89.8014 63.0094 89.8014 54.9301L92.7194 44.6398C86.0381 37.2701 66.1035 35.4413 46.3597 35.4413C30.6792 35.3868 8.39928 40.5728 0 45.6224Z" fill="#FFC50D"/>
<g opacity="0.43">
<path opacity="0.43" d="M27.8701 55.7764V73.136C31.7698 73.8457 35.9149 74.3643 40.2782 74.61V55.8037H27.8701V55.7764Z" fill="#FFFC8F"/>
</g>
<path d="M62.9131 73.4361V35.9053C76.3574 36.8606 87.9473 39.3172 92.7196 44.5851V55.0392C92.7196 63.4461 80.3389 70.5974 62.9131 73.4361Z" fill="#F19D00"/>
<path d="M46.3597 65.3024C71.9634 65.3024 92.7194 56.4915 92.7194 45.6226C92.7194 34.7538 71.9634 25.9429 46.3597 25.9429C20.7559 25.9429 0 34.7538 0 45.6226C0 56.4915 20.7559 65.3024 46.3597 65.3024Z" fill="#FFD400"/>
<path d="M19.9345 61.0444C12.026 58.6151 6.10836 55.1759 3.19043 51.2727L40.5509 26.6798C42.7052 26.5434 44.8323 26.4888 46.9322 26.4888C54.5951 26.4888 62.149 27.3076 68.8576 28.8361L19.9345 61.0444Z" fill="#FFFC8F"/>
<path d="M40.3605 64.5379C36.6518 64.3195 33.0248 63.9101 29.5342 63.3096L77.7755 31.5381C80.5298 32.6026 82.9842 33.8036 85.0567 35.1137L40.3605 64.5379Z" fill="#FFFC8F"/>
<path d="M46.3597 63.1188C71.9634 63.1188 92.7194 54.3079 92.7194 43.439C92.7194 32.5702 71.9634 23.7593 46.3597 23.7593C20.7559 23.7593 0 32.5702 0 43.439C0 54.3079 20.7559 63.1188 46.3597 63.1188Z" fill="#CE7D13"/>
<path d="M0 31.975V41.4464C0 49.5257 11.4536 56.4587 27.8703 59.4884C31.77 60.1981 35.9151 60.7167 40.2784 60.9624C42.2964 61.0716 44.3144 61.1262 46.387 61.1262C52.9591 61.1262 59.2313 60.553 64.8763 59.4884C81.2658 56.4587 89.8014 49.362 89.8014 41.2826L92.7194 30.9923C86.0381 23.6227 66.1035 21.7939 46.3597 21.7939C30.6792 21.7393 8.39928 26.9254 0 31.975Z" fill="#FFC50D"/>
<g opacity="0.43">
<path opacity="0.43" d="M27.8701 42.1289V59.4886C31.7698 60.1983 35.9149 60.7169 40.2782 60.9625V42.1562H27.8701V42.1289Z" fill="#FFFC8F"/>
</g>
<path d="M62.9131 59.7886V22.2578C76.3574 23.2131 87.9473 25.6697 92.7196 30.9377V41.3917C92.7196 49.7986 80.3389 56.9499 62.9131 59.7886Z" fill="#F19D00"/>
<path d="M46.3597 51.655C71.9634 51.655 92.7194 42.844 92.7194 31.9752C92.7194 21.1063 71.9634 12.2954 46.3597 12.2954C20.7559 12.2954 0 21.1063 0 31.9752C0 42.844 20.7559 51.655 46.3597 51.655Z" fill="#FFD400"/>
<path d="M19.9345 47.3964C12.026 44.9672 6.10836 41.528 3.19043 37.6248L40.5509 13.0319C42.7052 12.8954 44.8323 12.8408 46.9322 12.8408C54.5951 12.8408 62.149 13.6597 68.8576 15.1882L19.9345 47.3964Z" fill="#FFFC8F"/>
<path d="M40.3605 50.8904C36.6518 50.6721 33.0248 50.2626 29.5342 49.6621L77.7755 17.8906C80.5298 18.9551 82.9842 20.1561 85.0567 21.4663L40.3605 50.8904Z" fill="#FFFC8F"/>
<path d="M156.36 153.823C181.963 153.823 202.719 145.012 202.719 134.144C202.719 123.275 181.963 114.464 156.36 114.464C130.756 114.464 110 123.275 110 134.144C110 145.012 130.756 153.823 156.36 153.823Z" fill="#CE7D13"/>
<path d="M110 122.68V132.151C110 140.23 121.454 147.163 137.87 150.193C141.77 150.903 145.915 151.421 150.278 151.667C152.296 151.776 154.314 151.831 156.387 151.831C162.959 151.831 169.231 151.258 174.876 150.193C191.266 147.163 199.801 140.067 199.801 131.987L202.719 121.697C196.038 114.327 176.103 112.498 156.36 112.498C140.679 112.444 118.399 117.63 110 122.68Z" fill="#FFC50D"/>
<g opacity="0.43">
<path opacity="0.43" d="M137.87 132.833V150.193C141.77 150.903 145.915 151.421 150.278 151.667V132.861H137.87V132.833Z" fill="#FFFC8F"/>
</g>
<path d="M172.913 150.494V112.963C186.357 113.918 197.947 116.375 202.72 121.643V132.097C202.72 140.504 190.339 147.655 172.913 150.494Z" fill="#F19D00"/>
<path d="M156.36 142.36C181.963 142.36 202.719 133.549 202.719 122.68C202.719 111.811 181.963 103 156.36 103C130.756 103 110 111.811 110 122.68C110 133.549 130.756 142.36 156.36 142.36Z" fill="#FFD400"/>
<path d="M129.934 138.102C122.026 135.672 116.108 132.233 113.19 128.33L150.551 103.737C152.705 103.6 154.832 103.546 156.932 103.546C164.595 103.546 172.149 104.365 178.858 105.893L129.934 138.102Z" fill="#FFFC8F"/>
<path d="M150.361 141.596C146.652 141.377 143.025 140.968 139.534 140.367L187.776 108.596C190.53 109.66 192.984 110.861 195.057 112.171L150.361 141.596Z" fill="#FFFC8F"/>
<path d="M46.3597 50.922C71.9634 50.922 92.7194 42.1111 92.7194 31.2423C92.7194 20.3734 71.9634 11.5625 46.3597 11.5625C20.7559 11.5625 0 20.3734 0 31.2423C0 42.1111 20.7559 50.922 46.3597 50.922Z" fill="#CE7D13"/>
<path d="M0 19.7782V29.2496C0 37.329 11.4536 44.2619 27.8703 47.2917C31.77 48.0013 35.9151 48.5199 40.2784 48.7656C42.2964 48.8748 44.3144 48.9294 46.387 48.9294C52.9591 48.9294 59.2313 48.3562 64.8763 47.2917C81.2658 44.2619 89.8014 37.1652 89.8014 29.0858L92.7194 18.7956C86.0381 11.4259 66.1035 9.59711 46.3597 9.59711C30.6792 9.54252 8.39928 14.7286 0 19.7782Z" fill="#FFC50D"/>
<g opacity="0.43">
<path opacity="0.43" d="M27.8701 29.9321V47.2918C31.7698 48.0015 35.9149 48.5201 40.2782 48.7657V29.9594H27.8701V29.9321Z" fill="#FFFC8F"/>
</g>
<path d="M62.9131 47.5923V10.0615C76.3574 11.0169 87.9473 13.4734 92.7196 18.7414V29.1954C92.7196 37.6023 80.3389 44.7536 62.9131 47.5923Z" fill="#F19D00"/>
<path d="M46.3597 39.4582C71.9634 39.4582 92.7194 30.6473 92.7194 19.7784C92.7194 8.90957 71.9634 0.0986328 46.3597 0.0986328C20.7559 0.0986328 0 8.90957 0 19.7784C0 30.6473 20.7559 39.4582 46.3597 39.4582Z" fill="#FFD400"/>
<path d="M19.9345 35.2002C12.026 32.7709 6.10836 29.3317 3.19043 25.4285L40.5509 0.835596C42.7052 0.699121 44.8323 0.644531 46.9322 0.644531C54.5951 0.644531 62.149 1.46339 68.8576 2.99191L19.9345 35.2002Z" fill="#FFFC8F"/>
<path d="M40.3605 38.6941C36.6518 38.4758 33.0248 38.0664 29.5342 37.4659L77.7755 5.69434C80.5298 6.75885 82.9842 7.95984 85.0567 9.27L40.3605 38.6941Z" fill="#FFFC8F"/>
<g style="mix-blend-mode:multiply">
<ellipse cx="46.4132" cy="19.6679" rx="45.5833" ry="19.2029" transform="rotate(179.414 46.4132 19.6679)" fill="#FFCF25"/>
<path d="M46.1471 23.128L28.088 26.2754L15.7222 21.0239L76.9244 20.3982L62.6824 26.6062L46.1471 23.128Z" fill="white"/>
<path d="M24.4241 23.4744C24.3995 21.0715 34.8486 21.07 45.8566 20.9574C56.8646 20.8449 66.3814 21.4246 66.406 23.8274C66.4306 26.2303 56.949 29.1065 45.941 29.219C34.933 29.3316 24.4487 25.8773 24.4241 23.4744Z" fill="white"/>
<path d="M46.4955 17.0259L64.5546 13.8784L76.9204 19.1299L15.7182 19.7556L29.9602 13.5476L46.4955 17.0259Z" fill="white"/>
<path d="M68.2214 16.677C68.246 19.0798 57.7969 19.0814 46.789 19.1939C35.781 19.3065 26.2641 18.7268 26.2395 16.3239C26.2149 13.9211 35.6965 11.0449 46.7045 10.9323C57.7125 10.8198 68.1968 14.2741 68.2214 16.677Z" fill="white"/>
<rect x="91.459" y="20.2529" width="14.5392" height="1.27108" transform="rotate(179.414 91.459 20.2529)" fill="white"/>
<rect width="25.1517" height="2.87448" transform="matrix(0.926871 0.37538 -0.919003 0.394251 38.708 9.87891)" fill="#FFCF25"/>
<rect width="25.1517" height="2.87448" transform="matrix(0.926871 0.37538 -0.919003 0.394251 28.3389 10.0801)" fill="#FFCF25"/>
<rect width="22.8162" height="2.87448" transform="matrix(0.926871 0.37538 -0.919003 0.394251 9.19141 11.144)" fill="#FFCF25"/>
<rect width="25.1517" height="2.87448" transform="matrix(0.926871 0.37538 -0.919003 0.394251 17.6035 10.1465)" fill="#FFCF25"/>
<rect width="26.9483" height="2.87448" transform="matrix(0.926871 0.37538 -0.919003 0.394251 47.6152 9.07959)" fill="#FFCF25"/>
</g>
<path d="M156.36 141.922C181.963 141.922 202.719 133.111 202.719 122.242C202.719 111.373 181.963 102.562 156.36 102.562C130.756 102.562 110 111.373 110 122.242C110 133.111 130.756 141.922 156.36 141.922Z" fill="#CE7D13"/>
<path d="M110 110.778V120.25C110 128.329 121.454 135.262 137.87 138.292C141.77 139.001 145.915 139.52 150.278 139.766C152.296 139.875 154.314 139.929 156.387 139.929C162.959 139.929 169.231 139.356 174.876 138.292C191.266 135.262 199.801 128.165 199.801 120.086L202.719 109.796C196.038 102.426 176.103 100.597 156.36 100.597C140.679 100.543 118.399 105.729 110 110.778Z" fill="#FFC50D"/>
<g opacity="0.43">
<path opacity="0.43" d="M137.87 120.932V138.292C141.77 139.001 145.915 139.52 150.278 139.766V120.959H137.87V120.932Z" fill="#FFFC8F"/>
</g>
<path d="M172.913 138.592V101.062C186.357 102.017 197.947 104.473 202.72 109.741V120.195C202.72 128.602 190.339 135.754 172.913 138.592Z" fill="#F19D00"/>
<path d="M156.36 130.458C181.963 130.458 202.719 121.647 202.719 110.778C202.719 99.9096 181.963 91.0986 156.36 91.0986C130.756 91.0986 110 99.9096 110 110.778C110 121.647 130.756 130.458 156.36 130.458Z" fill="#FFD400"/>
<path d="M129.934 126.2C122.026 123.771 116.108 120.332 113.19 116.428L150.551 91.8356C152.705 91.6991 154.832 91.6445 156.932 91.6445C164.595 91.6445 172.149 92.4634 178.858 93.9919L129.934 126.2Z" fill="#FFFC8F"/>
<path d="M150.361 129.694C146.652 129.476 143.025 129.066 139.534 128.466L187.776 96.6943C190.53 97.7588 192.984 98.9598 195.057 100.27L150.361 129.694Z" fill="#FFFC8F"/>
<g style="mix-blend-mode:multiply">
<ellipse cx="156.413" cy="110.668" rx="45.5833" ry="19.2029" transform="rotate(179.414 156.413 110.668)" fill="#FFCF25"/>
<path d="M156.147 114.128L138.088 117.275L125.722 112.024L186.924 111.398L172.682 117.606L156.147 114.128Z" fill="white"/>
<path d="M134.424 114.474C134.4 112.072 144.849 112.07 155.857 111.957C166.865 111.845 176.381 112.425 176.406 114.827C176.431 117.23 166.949 120.107 155.941 120.219C144.933 120.332 134.449 116.877 134.424 114.474Z" fill="white"/>
<path d="M156.495 108.026L174.555 104.878L186.92 110.13L125.718 110.756L139.96 104.548L156.495 108.026Z" fill="white"/>
<path d="M178.221 107.677C178.246 110.08 167.797 110.081 156.789 110.194C145.781 110.306 136.264 109.727 136.239 107.324C136.215 104.921 145.696 102.045 156.704 101.932C167.712 101.82 178.197 105.274 178.221 107.677Z" fill="white"/>
<rect x="201.459" y="111.253" width="14.5392" height="1.27108" transform="rotate(179.414 201.459 111.253)" fill="white"/>
<rect width="25.1517" height="2.87448" transform="matrix(0.926871 0.37538 -0.919003 0.394251 148.708 100.879)" fill="#FFCF25"/>
<rect width="25.1517" height="2.87448" transform="matrix(0.926871 0.37538 -0.919003 0.394251 138.339 101.08)" fill="#FFCF25"/>
<rect width="22.8162" height="2.87448" transform="matrix(0.926871 0.37538 -0.919003 0.394251 119.191 102.144)" fill="#FFCF25"/>
<rect width="25.1517" height="2.87448" transform="matrix(0.926871 0.37538 -0.919003 0.394251 127.604 101.146)" fill="#FFCF25"/>
<rect width="26.9483" height="2.87448" transform="matrix(0.926871 0.37538 -0.919003 0.394251 157.615 100.08)" fill="#FFCF25"/>
</g>
</svg>
