<svg width="108" height="105" viewBox="0 0 108 105" fill="none" xmlns="http://www.w3.org/2000/svg">
<g transform="rotate(118 53 53)">
<path d="M53.4605 94.6138L18.7876 71.0479M53.4605 94.6138L90.002 75.2432M53.4605 94.6138L64.0299 70.2057M53.4605 94.6138L36.1028 61.8695M53.4605 94.6138L54.454 52.1414M18.7876 71.0479L18.7736 29.179M18.7876 71.0479L36.1028 61.8695M18.7876 71.0479L64.0299 70.2057M18.7876 71.0479L45.2418 34.7632M18.7736 29.179L55.3151 9.80837M18.7736 29.179L36.1028 61.8695M18.7736 29.179L45.2418 34.7632M18.7736 29.179L54.454 52.1414M55.3151 9.80837L89.1016 33.7768M55.3151 9.80837L45.2418 34.7632M55.3151 9.80837L72.6443 42.4988M55.3151 9.80837L54.454 52.1414M89.1016 33.7768L90.002 75.2432M89.1016 33.7768L72.6443 42.4988M89.1016 33.7768L45.2418 34.7632M89.1016 33.7768L64.0299 70.2057M90.002 75.2432L64.0299 70.2057M90.002 75.2432L72.6443 42.4988M90.002 75.2432L54.454 52.1414M64.0299 70.2057L72.6443 42.4988M64.0299 70.2057L36.1028 61.8695M64.0299 70.2057L54.454 52.1414M72.6443 42.4988L45.2418 34.7632M72.6443 42.4988L54.454 52.1414M45.2418 34.7632L54.454 52.1414M45.2418 34.7632L36.1028 61.8695M36.1028 61.8695L54.454 52.1414" stroke="black"/>
<circle cx="44.7228" cy="34.2902" r="7.07338" fill="#121212" stroke="black"/>
<circle cx="72.591" cy="42.6574" r="7.07338" fill="#635BFF" stroke="black"/>
<circle cx="63.8742" cy="70.4186" r="7.07338" fill="#FFE8E8" stroke="black"/>
<circle cx="36.463" cy="61.8092" r="7.07338" fill="#3BDEFF" stroke="black"/>
<circle cx="19.7706" cy="70.6579" r="7.07338" fill="#1CDB9E" stroke="black"/>
<path d="M63.4903 52.1162C63.4903 57.1521 59.4079 61.2344 54.3721 61.2344C49.3363 61.2344 45.2539 57.1521 45.2539 52.1162C45.2539 47.0804 49.3363 42.998 54.3721 42.998C59.4079 42.998 63.4903 47.0804 63.4903 52.1162Z" fill="white" stroke="black"/>
<circle cx="88.8283" cy="34.049" r="7.07338" fill="#F4900C" stroke="black"/>
<path d="M97.1214 75.5822C97.1214 79.4887 93.9545 82.6556 90.048 82.6556C86.1415 82.6556 82.9746 79.4887 82.9746 75.5822C82.9746 71.6756 86.1415 68.5088 90.048 68.5088C93.9545 68.5088 97.1214 71.6756 97.1214 75.5822Z" fill="#FFCB57" stroke="black"/>
<circle cx="19.131" cy="29.1085" r="7.07338" fill="#3B88C3" stroke="black"/>
<path d="M62.3333 9.95668C62.3333 13.8632 59.1664 17.0301 55.2599 17.0301C51.3534 17.0301 48.1865 13.8632 48.1865 9.95668C48.1865 6.05016 51.3534 2.8833 55.2599 2.8833C59.1664 2.8833 62.3333 6.05016 62.3333 9.95668Z" fill="#FB9A99" stroke="black"/>
<circle cx="53.9191" cy="94.734" r="7.07338" fill="#1BB186" stroke="black"/>
</g>
</svg>
