<svg width="1230" height="544" viewBox="0 0 1230 544" fill="none" xmlns="http://www.w3.org/2000/svg">
<style>
@keyframes logo {
  from {
    height: 0;
    width: 0;
    r: 0;
    stroke-width: 0;
  }
  to {
  }
}
#g :nth-child(1n) {
  animation: logo 2s ease-out alternate;
}
#g :nth-child(2n) {
  animation: logo 2s ease-in alternate;
}
:root {
  --color-text: #000000;
}
@media (prefers-color-scheme: dark) {
:root {
  --color-text: #ffffff;
}
[data-theme="light"] {
--color-text:#000000;
}
}
[data-theme="dark"] {
--color-text:#ffffff;
}
#t > rect,
#t > circle {
stroke: var(--color-text);
fill: var(--color-text);
}
#t > path {
stroke: var(--color-text);
}
#t > g > path {
fill: var(--color-text);
}
</style>
<g id="g">
<circle cx="271.529" cy="271.529" r="192" transform="rotate(-45 271.529 271.529)" fill="black"/>
<path d="M250.074 248.155L283.196 172.18L359.21 173.948L174.656 358.503L173.948 271.529L250.074 248.155Z" fill="white"/>
<path d="M314.663 181.727C332.041 199.105 299.774 229.849 266.58 263.044C233.385 296.238 199.812 320.02 182.434 302.642C165.056 285.264 173.634 236.488 206.829 203.293C240.023 170.099 297.284 164.348 314.663 181.727Z" fill="white"/>
<path d="M292.984 293.489L259.862 369.463L183.848 367.696L368.403 183.141L369.11 270.115L292.984 293.489Z" fill="white"/>
<path d="M228.395 359.917C211.017 342.539 243.284 311.794 276.479 278.6C309.673 245.405 343.246 221.624 360.624 239.002C378.003 256.38 369.424 305.156 336.229 338.351C303.035 371.545 245.774 377.296 228.395 359.917Z" fill="white"/>
<rect x="130.814" y="402.344" width="62" height="13" transform="rotate(-45 130.814 402.344)" fill="white"/>
<rect x="368.439" y="322.529" width="140" height="16" transform="rotate(-180 368.439 322.529)" fill="black"/>
<rect x="399.015" y="290.529" width="140" height="16" transform="rotate(-180 399.015 290.529)" fill="black"/>
<rect x="450.529" y="226.529" width="127" height="16" transform="rotate(-180 450.529 226.529)" fill="black"/>
<rect x="431.713" y="258.529" width="140" height="16" transform="rotate(-180 431.713 258.529)" fill="black"/>
<rect x="346.668" y="354.529" width="150" height="16" transform="rotate(-180 346.668 354.529)" fill="black"/>
<g id='t'>
<rect x="919.686" y="226.336" width="19.8992" height="114.42" rx="6" fill="#5B3F99"/>
<rect x="975.653" y="200.219" width="19.8992" height="49.7479" rx="6" fill="#5B3F99"/>
<rect x="960.729" y="230.068" width="65.916" height="19.8992" rx="6" fill="#5B3F99"/>
<path d="M985.607 264.891V312.152V317.439C985.607 318.473 985.693 319.504 985.863 320.524L986.352 323.457C986.676 325.406 987.602 327.205 989 328.603V328.603C990.04 329.643 991.309 330.428 992.706 330.893L993.899 331.291C995.409 331.794 996.99 332.051 998.582 332.051H1002.4H1014.83" stroke="black" stroke-width="16" stroke-linecap="round" stroke-linejoin="round"/>
<rect x="1178.38" y="197.731" width="19.8992" height="49.7479" rx="6" fill="#5B3F99"/>
<rect x="1163.46" y="227.58" width="65.916" height="19.8992" rx="6" fill="#5B3F99"/>
<path d="M1188.33 262.403V309.664V314.952C1188.33 315.985 1188.41 317.017 1188.58 318.036L1189.07 320.969C1189.4 322.919 1190.32 324.718 1191.72 326.115V326.115C1192.76 327.156 1194.03 327.94 1195.42 328.405L1196.62 328.803C1198.13 329.307 1199.71 329.563 1201.3 329.563H1205.12H1217.55" stroke="black" stroke-width="16" stroke-linecap="round" stroke-linejoin="round"/>
<path d="M806.51 305.38L814.207 313.334C821.332 320.696 830.592 325.632 840.676 327.442L842.258 327.725C846.992 328.575 851.841 328.564 856.572 327.693L857.882 327.451C867.585 325.664 876.164 320.058 881.697 311.89V311.89C884.604 307.599 886.573 302.742 887.473 297.637L888.2 293.52C889.283 287.382 889.25 281.099 888.101 274.973L887.708 272.875C886.652 267.245 884.444 261.893 881.223 257.156V257.156C877.486 251.66 872.486 247.14 866.642 243.975L866.487 243.891C862.594 241.782 858.394 240.298 854.04 239.491L850.775 238.887C846.196 238.039 841.486 238.212 836.981 239.395V239.395L828.275 242.574" stroke="black" stroke-width="18" stroke-linecap="round" stroke-linejoin="round"/>
<g>
<path d="M816.466 336C816.466 339.314 813.779 342 810.466 342H802.566C799.253 342 796.566 339.314 796.566 336V200C796.566 196.686 799.253 194 802.566 194H810.466C813.779 194 816.466 196.686 816.466 200V336Z" fill="#5B3F99"/>
</g>
<path d="M741.839 261.16L734.142 253.206C727.017 245.844 717.757 240.909 707.673 239.099L706.091 238.815C701.356 237.965 696.507 237.976 691.777 238.848L690.467 239.089C680.764 240.876 672.185 246.482 666.652 254.65V254.65C663.745 258.942 661.776 263.799 660.875 268.903L660.149 273.02C659.066 279.158 659.099 285.441 660.248 291.568L660.641 293.665C661.697 299.296 663.905 304.647 667.126 309.384V309.384C670.863 314.88 675.863 319.4 681.707 322.565L682.118 322.788C685.841 324.805 689.858 326.225 694.022 326.996V326.996C700.908 328.271 708.007 327.737 714.624 325.446L720.696 323.345" stroke="black" stroke-width="16" stroke-linecap="round" stroke-linejoin="round"/>
<rect x="735.62" y="225.092" width="19.8992" height="114.42" rx="6" fill="#5B3F99"/>
<path d="M1128.63 261.16L1120.93 253.206C1113.81 245.844 1104.55 240.909 1094.47 239.099L1092.88 238.815C1088.15 237.965 1083.3 237.976 1078.57 238.848L1077.26 239.089C1067.56 240.876 1058.98 246.482 1053.44 254.65V254.65C1050.54 258.942 1048.57 263.799 1047.67 268.903L1046.94 273.02C1045.86 279.158 1045.89 285.441 1047.04 291.568L1047.43 293.665C1048.49 299.296 1050.7 304.647 1053.92 309.384V309.384C1057.66 314.88 1062.66 319.4 1068.5 322.565L1068.91 322.788C1072.63 324.805 1076.65 326.225 1080.81 326.996V326.996C1087.7 328.271 1094.8 327.737 1101.42 325.446L1107.49 323.345" stroke="black" stroke-width="16" stroke-linecap="round" stroke-linejoin="round"/>
<rect x="1122.41" y="225.092" width="19.8992" height="114.42" rx="6" fill="#5B3F99"/>
<mask id="path-25-inside-1" fill="white">
<rect x="597.567" y="287.277" width="19.8992" height="52.2352" rx="6"/>
</mask>
<rect x="597.567" y="287.277" width="19.8992" height="52.2352" rx="6" fill="#5B3F99" stroke="black" stroke-width="19.8992" mask="url(#path-25-inside-1)"/>
<mask id="path-26-inside-2" fill="white">
<rect x="513" y="194" width="19.8992" height="52.2352" rx="6"/>
</mask>
<rect x="513" y="194" width="19.8992" height="52.2352" rx="6" fill="#5B3F99" stroke="black" stroke-width="19.8992" mask="url(#path-26-inside-2)"/>
<mask id="path-27-inside-3" fill="white">
<rect x="597.567" y="194" width="19.8992" height="83.3278" rx="6"/>
</mask>
<rect x="597.567" y="194" width="19.8992" height="83.3278" rx="6" fill="#5B3F99" stroke="black" stroke-width="19.8992" mask="url(#path-27-inside-3)"/>
<mask id="path-28-inside-4" fill="white">
<rect x="513" y="257.428" width="19.8992" height="82.0839" rx="6"/>
</mask>
<rect x="513" y="257.428" width="19.8992" height="82.0839" rx="6" stroke="black" stroke-width="19.8992" mask="url(#path-28-inside-4)"/>
<mask id="path-29-inside-5" fill="white">
<rect x="513" y="257.428" width="104.47" height="19.8992" rx="6"/>
</mask>
<rect x="513" y="257.428" width="104.47" height="19.8992" rx="6" fill="#5B3F99" stroke="black" stroke-width="19.8992" mask="url(#path-29-inside-5)"/>
<circle cx="929.639" cy="205.193" r="11.1933" fill="#5B3F99"/>
</g>
</g>
</svg>
