<svg width="826" height="250" viewBox="0 0 826 250" fill="none" xmlns="http://www.w3.org/2000/svg">
<style>
@keyframes logo {
  from {
    height: 0;
    width: 0;
    r: 0;
    stroke-width: 0;
  }
  to {
  }
}
#g :nth-child(1n) {
  animation: logo 2s ease-out alternate;
}
#g :nth-child(2n) {
  animation: logo 2s ease-in alternate;
}
:root {
  --color-text: #000000;
}
@media (prefers-color-scheme: dark) {
:root {
  --color-text: #ffffff;
}
[data-theme="light"] {
--color-text:#000000;
}
}
[data-theme="dark"] {
--color-text:#ffffff;
}
#t > rect,
#t > circle {
stroke: var(--color-text);
fill: var(--color-text);
}
#t > path {
stroke: var(--color-text);
}
#t > g > path {
fill: var(--color-text);
}
</style>
<g id="g">
<g id="t">
<rect x="577" y="91" width="16" height="92" rx="6" fill="#121212"/>
<rect x="622" y="70" width="16" height="40" rx="6" fill="#121212"/>
<rect x="610" y="94" width="53" height="16" rx="6" fill="#121212"/>
<path d="M630 122V160V164.252C630 165.082 630.069 165.912 630.205 166.732L630.598 169.09C630.86 170.657 631.604 172.104 632.727 173.227V173.227C633.564 174.064 634.585 174.695 635.707 175.069L636.667 175.389C637.881 175.794 639.152 176 640.432 176H643.5H653.5" stroke="#121212" stroke-width="18" stroke-linecap="round" stroke-linejoin="round"/>
<rect x="785" y="68" width="16" height="40" rx="6" fill="#121212"/>
<rect x="773" y="92" width="53" height="16" rx="6" fill="#121212"/>
<path d="M793 120V158V162.252C793 163.082 793.069 163.912 793.205 164.732L793.598 167.09C793.86 168.657 794.604 170.104 795.727 171.227V171.227C796.564 172.064 797.585 172.695 798.707 173.069L799.667 173.389C800.881 173.794 802.152 174 803.432 174H806.5H816.5" stroke="#121212" stroke-width="18" stroke-linecap="round" stroke-linejoin="round"/>
<path d="M487.5 156.5L492.139 161.159C497.907 166.95 505.314 170.83 513.359 172.274L514.743 172.523C518.55 173.206 522.449 173.197 526.252 172.496L527.306 172.302C535.107 170.865 542.005 166.358 546.454 159.79V159.79C548.792 156.34 550.374 152.434 551.099 148.33L551.683 145.02C552.554 140.084 552.527 135.032 551.603 130.106L551.287 128.42C550.438 123.893 548.663 119.59 546.073 115.781V115.781C543.068 111.362 539.048 107.728 534.349 105.183L534.225 105.115C531.094 103.419 527.717 102.226 524.217 101.578L521.591 101.091C517.909 100.409 514.122 100.549 510.5 101.5V101.5L503.5 104.056" stroke="#121212" stroke-width="18" stroke-linecap="round" stroke-linejoin="round"/>
<g>
<path d="M494 178C494 181.314 491.314 184 488 184H484C480.686 184 478 181.314 478 178V71C478 67.6863 480.686 65 484 65H488C491.314 65 494 67.6863 494 71V178Z" fill="#121212"/>
</g>
<path d="M434 119L427.811 112.605C422.082 106.685 414.637 102.717 406.529 101.262L405.257 101.033C401.45 100.35 397.551 100.359 393.748 101.06L392.694 101.254C384.893 102.691 377.995 107.198 373.546 113.766V113.766C371.208 117.216 369.626 121.122 368.901 125.226L368.317 128.536C367.446 133.471 367.473 138.524 368.397 143.45L368.713 145.136C369.562 149.663 371.337 153.966 373.927 157.775V157.775C376.932 162.194 380.952 165.828 385.651 168.373L385.982 168.553C388.975 170.174 392.205 171.316 395.553 171.936V171.936C401.089 172.961 406.797 172.532 412.118 170.69L417 169" stroke="#121212" stroke-width="18" stroke-linecap="round" stroke-linejoin="round"/>
<rect x="429" y="90" width="16" height="92" rx="6" fill="#121212"/>
<path d="M745 119L738.811 112.605C733.082 106.685 725.637 102.717 717.529 101.262L716.257 101.033C712.45 100.35 708.551 100.359 704.748 101.06L703.694 101.254C695.893 102.691 688.995 107.198 684.546 113.766V113.766C682.208 117.216 680.626 121.122 679.901 125.226L679.317 128.536C678.446 133.471 678.473 138.524 679.397 143.45L679.713 145.136C680.562 149.663 682.337 153.966 684.927 157.775V157.775C687.932 162.194 691.952 165.828 696.651 168.373L696.982 168.553C699.975 170.174 703.205 171.316 706.553 171.936V171.936C712.089 172.961 717.797 172.532 723.118 170.69L728 169" stroke="#121212" stroke-width="18" stroke-linecap="round" stroke-linejoin="round"/>
<rect x="740" y="90" width="16" height="92" rx="6" fill="#121212"/>
<mask id="path-14-inside-1" fill="white">
<rect x="318" y="140" width="16" height="42" rx="6"/>
</mask>
<rect x="318" y="140" width="16" height="42" rx="6" fill="#121212" stroke="#121212" stroke-width="16" mask="url(#path-14-inside-1)"/>
<mask id="path-15-inside-2" fill="white">
<rect x="250" y="65" width="16" height="42" rx="6"/>
</mask>
<rect x="250" y="65" width="16" height="42" rx="6" fill="#121212" stroke="#121212" stroke-width="16" mask="url(#path-15-inside-2)"/>
<mask id="path-16-inside-3" fill="white">
<rect x="318" y="65" width="16" height="67" rx="6"/>
</mask>
<rect x="318" y="65" width="16" height="67" rx="6" fill="#121212" stroke="#121212" stroke-width="16" mask="url(#path-16-inside-3)"/>
<mask id="path-17-inside-4" fill="white">
<rect x="250" y="116" width="16" height="66" rx="6"/>
</mask>
<rect x="250" y="116" width="16" height="66" rx="6" stroke="#121212" stroke-width="16" mask="url(#path-17-inside-4)"/>
<mask id="path-18-inside-5" fill="white">
<rect x="250" y="116" width="84" height="16" rx="6"/>
</mask>
<rect x="250" y="116" width="84" height="16" rx="6" fill="#121212" stroke="#121212" stroke-width="16" mask="url(#path-18-inside-5)"/>
<circle cx="585" cy="74" r="9" fill="#121212"/>
</g>
<g>
<circle cx="125" cy="125" r="88.3884" transform="rotate(-45 125 125)" fill="black"/>
<path d="M115.123 114.24L130.371 79.2645L165.365 80.0783L80.404 165.039L80.0784 125L115.123 114.24Z" fill="white"/>
<path d="M144.857 83.659C152.857 91.6592 138.003 105.813 122.722 121.094C107.44 136.375 91.9848 147.323 83.9846 139.323C75.9844 131.323 79.9337 108.869 95.215 93.5873C110.496 78.306 136.857 75.6588 144.857 83.659Z" fill="white"/>
<path d="M134.878 135.109L119.63 170.085L84.6361 169.271L169.597 84.31L169.923 124.349L134.878 135.109Z" fill="white"/>
<path d="M105.143 165.69C97.1433 157.69 111.998 143.536 127.279 128.255C142.56 112.974 158.016 102.026 166.016 110.026C174.016 118.026 170.067 140.48 154.785 155.762C139.504 171.043 113.144 173.69 105.143 165.69Z" fill="white"/>
<rect x="60.2212" y="185.221" width="28.5421" height="5.98463" transform="rotate(-45 60.2212 185.221)" fill="white"/>
<rect x="169.613" y="148.478" width="64.4498" height="7.3657" transform="rotate(-180 169.613 148.478)" fill="black"/>
<rect x="183.689" y="133.747" width="64.4498" height="7.3657" transform="rotate(-180 183.689 133.747)" fill="black"/>
<rect x="207.404" y="104.284" width="58.4652" height="7.3657" transform="rotate(-180 207.404 104.284)" fill="black"/>
<rect x="198.742" y="119.015" width="64.4498" height="7.3657" transform="rotate(-180 198.742 119.015)" fill="black"/>
<rect x="159.591" y="163.21" width="69.0534" height="7.3657" transform="rotate(-180 159.591 163.21)" fill="black"/>
</g>
</g>
</svg>
