<svg width="1137" height="48" viewBox="0 0 1137 48" fill="none" xmlns="http://www.w3.org/2000/svg">
<path d="M1137 48L1061 48L1061 9.85263e-07L1137 7.62939e-06L1137 48Z" fill="#F87972"/>
<rect x="1061" y="48" width="148" height="48" transform="rotate(-180 1061 48)" fill="#F28F74"/>
<rect x="913" y="48" width="146" height="48" transform="rotate(-180 913 48)" fill="#E8AF78"/>
<rect x="767" y="48" width="73" height="48" transform="rotate(-180 767 48)" fill="#E1C87B"/>
<rect x="694" y="48" width="81" height="48" transform="rotate(-180 694 48)" fill="#D6D87D"/>
<rect x="613" y="48" width="92" height="48" transform="rotate(-180 613 48)" fill="#D5E37E"/>
<rect x="521" y="48" width="63" height="48" transform="rotate(-180 521 48)" fill="#CCE080"/>
<rect x="458" y="48" width="117" height="48" transform="rotate(-180 458 48)" fill="#ADCE80"/>
<rect x="343" y="48" width="73" height="48" transform="rotate(-180 343 48)" fill="#99C281"/>
<rect x="270" y="48" width="85" height="48" transform="rotate(-180 270 48)" fill="#89B981"/>
<rect x="185" y="48" width="138" height="48" transform="rotate(-180 185 48)" fill="#6FAA82"/>
<path d="M0 0H47V48H0V0Z" fill="#579D83"/>
</svg>
