<svg width="1001" height="185" viewBox="0 0 1001 185" fill="none" xmlns="http://www.w3.org/2000/svg">
<path d="M851 153.67C828.18 153.67 814 136.31 814 114.48C814 93.1499 828.39 75.7899 851 75.7899C862.9 75.7899 874.81 78.0199 887.71 78.2699V114.48C887.71 136.06 871.09 153.67 851 153.67ZM590.3 153.67C570.21 153.67 553.1 136.06 553.1 114.48V78.2699C566.74 78.5099 577.41 75.7899 590.3 75.7899C612.88 75.7899 627.3 90.6699 627.3 114.48C627.3 136.31 613.16 153.67 590.3 153.67ZM446.93 153.67C424.11 153.67 409.98 136.31 409.98 114.48C409.98 93.1499 424.36 75.7899 446.93 75.7899C458.84 75.7899 470.75 78.0199 483.65 78.2699V114.48C483.65 136.06 467.03 153.67 446.93 153.67ZM693.23 52.7199H666V176.72H693.28L693.23 52.7199ZM846 50.9999C813.26 50.9999 786.71 79.5299 786.71 114.5C786.71 149.72 813.01 178.5 846 178.5C873.78 178.5 884.2 160.88 886.43 143.27H887.67V176.76H915V51.7599L913 51.9999C882.49 55.7199 873.31 50.9999 846 50.9999ZM442 50.9999C409.26 50.9999 382.72 79.5299 382.72 114.5C382.72 149.72 409.01 178.5 442 178.5C469.78 178.5 480.2 160.88 482.43 143.27H483.68V176.76H510.96V51.7599L508.96 51.9999C478.45 55.7199 469.27 50.9999 441.96 50.9999H442ZM679.59 11.0499C676.498 11.0499 673.476 11.9668 670.905 13.6847C668.335 15.4026 666.331 17.8442 665.149 20.7008C663.966 23.5574 663.657 26.7006 664.261 29.7328C664.865 32.765 666.354 35.55 668.541 37.7355C670.728 39.921 673.514 41.4088 676.547 42.0108C679.579 42.6127 682.722 42.3018 685.578 41.1172C688.434 39.9327 690.874 37.9278 692.591 35.3561C694.307 32.7845 695.222 29.7616 695.22 26.6699C695.228 24.6155 694.829 22.58 694.046 20.6806C693.263 18.7813 692.112 17.0558 690.659 15.6036C689.206 14.1514 687.48 13.0014 685.58 12.2198C683.68 11.4382 681.644 11.0406 679.59 11.0499ZM988.4 151.94C971.54 151.94 968.56 149.21 968.56 132.34V93.6399C968.56 80.4999 954.17 79.2599 946.24 78.7599V77.5199H993.86V52.7199H968.56V3.10986H941.28V52.7199H925.65V77.5199H941.28V137.3C941.28 167.81 950.7 176.74 983.44 176.74H1000.81V151.94H988.4ZM750.28 93.6399C750.28 80.4999 735.9 79.2599 727.96 78.7599V77.5199H775.58V52.7199H750.28V3.10986H723V52.7199H707.37V77.5199H723V137.3C723 167.81 732.42 176.74 765.17 176.74H782.53V151.94H770.13C753.26 151.94 750.28 149.21 750.28 132.34V93.6399ZM595.25 50.9999C574.42 50.9999 568.25 54.2299 553.09 53.7299V3.10986H525.8V176.74H553.09V143.25H554.82C557.06 160.86 567.47 178.48 595.25 178.48C628.25 178.48 654.54 149.7 654.54 114.48C654.54 76.9999 628 50.9999 595.25 50.9999ZM319.43 50.9999C298.59 50.9999 285.7 62.1599 283.71 79.9999H282.47V3.10986H255.19V176.74H282.47V115.74C282.47 89.7399 297.11 75.8099 314.47 75.8099C332.58 75.8099 348.2 88.9499 348.2 115.74V176.74H375.49V115.74C375.49 75.5599 353.41 50.9999 319.43 50.9999Z" fill="black"/>
<path d="M92.23 0C67.7526 0.120056 44.3114 9.8947 27 27.2C9.57 45.37 0 68.47 0 92.23V184.46H92.23C104.34 184.478 116.334 182.093 127.517 177.445C138.7 172.797 148.85 165.977 157.38 157.38C174.5 140.27 184.11 117.17 184.46 92.23V0H92.23ZM101 162.09C108.323 152.316 112.321 140.453 112.41 128.24V72H56.22C44.128 72.0486 32.3711 75.9781 22.68 83.21C25.4125 78.1399 28.8203 73.4639 32.81 69.31C43.7506 58.403 58.5515 52.2512 74 52.19H132.29V110.37C132.122 125.823 125.988 140.614 115.17 151.65C111 155.824 106.222 159.344 101 162.09ZM15.65 168.78V128.24C15.7915 117.512 20.0688 107.252 27.59 99.6C35.1981 92.0242 45.4835 87.7491 56.22 87.7H96.76V128.13C96.6481 138.888 92.3805 149.186 84.85 156.87C81.1024 160.65 76.6423 163.648 71.728 165.693C66.8136 167.737 61.5426 168.786 56.22 168.78H15.65ZM168.75 92.12C168.716 105.695 165.09 119.019 158.24 130.739C151.39 142.459 141.561 152.158 129.75 158.85C141.374 145.399 147.842 128.257 148 110.48V36.48H74C56.4354 36.5654 39.4662 42.8558 26.09 54.24C29.4594 48.4164 33.515 43.0178 38.17 38.16C52.5308 23.8464 71.9543 15.7694 92.23 15.68H168.78L168.75 92.12Z" fill="black"/>
</svg>
