<svg width="32" height="32" viewBox="0 0 32 32" fill="none" xmlns="http://www.w3.org/2000/svg">
<g clip-path="url(#clip0)">
<rect width="32" height="32" rx="16" fill="white"/>
<path d="M15.46 21.44C15.46 20.456 15.616 19.592 15.928 18.848C16.264 18.104 16.672 17.468 17.152 16.94C17.632 16.412 18.256 15.812 19.024 15.14C20.056 14.228 20.812 13.436 21.292 12.764C21.796 12.068 22.048 11.228 22.048 10.244C22.048 8.924 21.532 7.868 20.5 7.076C19.468 6.26 18.052 5.852 16.252 5.852C13.276 5.852 10.984 6.824 9.376 8.768L7.468 7.328C9.508 4.832 12.496 3.584 16.432 3.584C18.952 3.584 20.956 4.148 22.444 5.276C23.956 6.404 24.712 7.928 24.712 9.848C24.712 10.832 24.544 11.708 24.208 12.476C23.896 13.22 23.5 13.856 23.02 14.384C22.564 14.912 21.952 15.524 21.184 16.22C20.152 17.156 19.384 17.996 18.88 18.74C18.376 19.46 18.124 20.36 18.124 21.44H15.46ZM16.792 29.18C16.264 29.18 15.82 29 15.46 28.64C15.1 28.256 14.92 27.812 14.92 27.308C14.92 26.78 15.1 26.348 15.46 26.012C15.82 25.652 16.264 25.472 16.792 25.472C17.344 25.472 17.8 25.652 18.16 26.012C18.52 26.348 18.7 26.78 18.7 27.308C18.7 27.812 18.508 28.256 18.124 28.64C17.764 29 17.32 29.18 16.792 29.18Z" fill="black"/>
</g>
<defs>
<clipPath id="clip0">
<rect width="32" height="32" rx="16" fill="white"/>
</clipPath>
</defs>
</svg>
